<svg width="24" height="24" viewBox="0 0 24 24" fill="none" xmlns="http://www.w3.org/2000/svg">
<path d="M12.1094 6.51851C12.2916 6.30612 12.4924 6.11168 12.7087 5.93804C13.6073 5.21659 14.7737 4.85416 15.9915 5.05486L16.2241 5.09915C16.6876 5.19944 17.1395 5.36982 17.5664 5.60711C18.0648 5.88409 18.5067 6.23784 18.8776 6.65471C20.5585 8.54285 20.3162 11.5055 18.3872 13.1094C18.1302 13.3228 17.8817 13.5401 17.642 13.7614L12.6805 18.3682C12.2968 18.7244 11.7032 18.7244 11.3196 18.3681L6.35995 13.7625C6.1194 13.542 5.8692 13.3232 5.61087 13.1069L5.4849 12.9981C3.67396 11.3725 3.47953 8.50007 5.12197 6.65503C5.49417 6.23659 5.93684 5.88196 6.43333 5.60713C6.92962 5.33128 7.46077 5.14617 8.00824 5.05486C9.22546 4.85427 10.3912 5.21619 11.291 5.93863C11.5069 6.11199 11.7075 6.30612 11.8898 6.51821C11.9476 6.5855 12.0526 6.58671 12.1094 6.51851Z" fill="red"/>
</svg>
